<svg width="287" height="128" viewBox="0 0 287 128" fill="none" xmlns="http://www.w3.org/2000/svg">
<path d="M20.443 26.8176C18.8763 26.8176 17.3738 27.4399 16.266 28.5478C15.1582 29.6556 14.5359 31.1581 14.5359 32.7247V55.9608C13.8986 56.056 13.2832 56.2633 12.7183 56.5733V32.7247C12.7183 30.676 13.5321 28.7112 14.9808 27.2625C16.4295 25.8139 18.3943 25 20.443 25H42.7594C44.7569 25.0386 46.6617 25.8497 48.074 27.2629L68.6182 47.8071C70.0314 49.2193 70.8424 51.1242 70.8811 53.1217V89.9787C70.8811 92.0275 70.0672 93.9923 68.6185 95.441C67.1699 96.8896 65.205 97.7035 63.1563 97.7035H40.9381C41.3271 97.1582 41.5925 96.5366 41.7161 95.8859H63.1563C64.723 95.8859 66.2255 95.2635 67.3333 94.1557C68.4411 93.0479 69.0635 91.5454 69.0635 89.9787V54.0814H49.5244C47.4757 54.0814 45.5109 53.2675 44.0622 51.8189C42.6135 50.3702 41.7997 48.4054 41.7997 46.3567V26.8176H20.443ZM46.7889 28.5479C45.9269 27.6854 44.8189 27.1108 43.6173 26.903V46.3567C43.6173 47.9233 44.2396 49.4258 45.3474 50.5336C46.4552 51.6415 47.9577 52.2638 49.5244 52.2638H68.978C68.7703 51.0621 68.1957 49.9542 67.3331 49.0921L46.7889 28.5479ZM10.5971 81.5488C9.41468 80.0207 7.80453 78.8787 5.97139 78.268L1.24203 76.7322C0.878618 76.6028 0.564142 76.3642 0.341762 76.049C0.119383 75.7339 0 75.3576 0 74.9718C0 74.5861 0.119383 74.2098 0.341762 73.8946C0.564142 73.5795 0.878618 73.3408 1.24203 73.2115L5.97139 71.6756C7.37212 71.1925 8.64419 70.3962 9.69082 69.3474C10.7374 68.2986 11.531 67.0248 12.0112 65.6231L12.0512 65.5067L13.5889 60.781C13.717 60.4162 13.9553 60.1001 14.2708 59.8765C14.5863 59.6529 14.9634 59.5328 15.3501 59.5328C15.7368 59.5328 16.114 59.6529 16.4295 59.8765C16.745 60.1001 16.9833 60.4162 17.1114 60.781L18.6491 65.5067C19.1275 66.9441 19.9345 68.2501 21.006 69.321C22.0775 70.3918 23.3839 71.1981 24.8216 71.6756L29.5528 73.2115L29.6473 73.2351C30.0107 73.3645 30.3252 73.6031 30.5475 73.9183C30.7699 74.2334 30.8893 74.6097 30.8893 74.9955C30.8893 75.3812 30.7699 75.7575 30.5475 76.0727C30.3252 76.3878 30.0107 76.6265 29.6473 76.7558L24.9161 78.2917C23.4785 78.7692 22.172 79.5755 21.1005 80.6463C20.029 81.7172 19.222 83.0232 18.7436 84.4606L17.2059 89.1863L17.1605 89.3026C17.0507 89.5585 16.8851 89.7866 16.6758 89.9703C16.4665 90.1539 16.2187 90.2883 15.9507 90.3638C15.6827 90.4393 15.4012 90.4538 15.1268 90.4064C14.8524 90.3589 14.5921 90.2507 14.365 90.0896C14.0504 89.8665 13.8123 89.5516 13.6834 89.1881L12.1457 84.4606C11.7975 83.4096 11.2739 82.4251 10.5971 81.5488ZM37.4538 94.0392L34.9492 93.225C34.1884 92.972 33.4969 92.5453 32.9297 91.9787C32.3624 91.4121 31.9349 90.7211 31.6812 89.9606L30.8687 87.4577C30.801 87.2642 30.6748 87.0965 30.5076 86.9778C30.3404 86.8592 30.1404 86.7954 29.9354 86.7954C29.7303 86.7954 29.5304 86.8592 29.3631 86.9778C29.1959 87.0965 29.0697 87.2642 29.002 87.4577L28.1878 89.9606C27.9391 90.7157 27.5194 91.4032 26.9614 91.9694C26.4033 92.5356 25.722 92.9653 24.9706 93.225L22.466 94.0392C22.2745 94.1085 22.109 94.2351 21.9921 94.4018C21.8751 94.5685 21.8124 94.7671 21.8124 94.9707C21.8124 95.1744 21.8751 95.373 21.9921 95.5397C22.109 95.7064 22.2745 95.833 22.466 95.9023L24.9706 96.7165C25.2457 96.8074 25.5111 96.9213 25.7667 97.0582L25.7722 97.0855C26.9389 97.7089 27.8218 98.7564 28.2386 100.012L29.0529 102.515C29.1199 102.7 29.2409 102.862 29.4003 102.978C29.5597 103.095 29.7502 103.161 29.9475 103.168C30.1448 103.176 30.3398 103.124 30.5075 103.02C30.6752 102.916 30.8079 102.764 30.8887 102.584V102.569L30.9178 102.496L31.7321 99.9936C31.9858 99.2331 32.4133 98.5421 32.9806 97.9755C33.5478 97.4089 34.2393 96.9822 35.0001 96.7293L37.5047 95.915C37.6962 95.8457 37.8617 95.7191 37.9786 95.5524C38.0956 95.3858 38.1583 95.1871 38.1583 94.9835C38.1583 94.7799 38.0956 94.5812 37.9786 94.4145C37.8617 94.2478 37.6962 94.1212 37.5047 94.052L37.4538 94.0392Z" fill="white"/>
<path d="M104.4 96V36H119.267C123.222 36 126.556 36.6 129.267 37.8C132.022 39 134.244 40.5778 135.933 42.5333C137.622 44.4444 138.844 46.5333 139.6 48.8C140.4 51.0667 140.8 53.2889 140.8 55.4667C140.8 57.6 140.422 59.8 139.667 62.0667C138.911 64.3333 137.689 66.4444 136 68.4C134.311 70.3556 132.089 71.9333 129.333 73.1333C126.578 74.3333 123.222 74.9333 119.267 74.9333H112V96H104.4ZM112 68.1333H118.867C122.467 68.1333 125.311 67.5111 127.4 66.2667C129.489 64.9778 130.978 63.3778 131.867 61.4667C132.756 59.5111 133.2 57.5111 133.2 55.4667C133.2 53.5111 132.756 51.5556 131.867 49.6C131.022 47.6444 129.556 46.0222 127.467 44.7333C125.422 43.4444 122.556 42.8 118.867 42.8H112V68.1333ZM164.908 96.5333C161.264 96.5333 157.931 95.6222 154.908 93.8C151.886 91.9333 149.464 89.4444 147.642 86.3333C145.864 83.2222 144.975 79.7778 144.975 76C144.975 72.2222 145.864 68.7778 147.642 65.6667C149.464 62.5556 151.886 60.0889 154.908 58.2667C157.931 56.4 161.264 55.4667 164.908 55.4667C167.664 55.4667 170.242 55.9778 172.642 57C175.086 58.0222 177.197 59.4444 178.975 61.2667V56H185.642V96H178.975V90.7333C177.197 92.5111 175.086 93.9333 172.642 95C170.242 96.0222 167.664 96.5333 164.908 96.5333ZM165.842 90C168.375 90 170.664 89.3778 172.708 88.1333C174.797 86.8444 176.442 85.1556 177.642 83.0667C178.886 80.9333 179.508 78.5778 179.508 76C179.508 73.4222 178.886 71.0889 177.642 69C176.442 66.8667 174.797 65.1778 172.708 63.9333C170.664 62.6444 168.375 62 165.842 62C163.308 62 160.997 62.6444 158.908 63.9333C156.864 65.1778 155.219 66.8667 153.975 69C152.775 71.0889 152.175 73.4222 152.175 76C152.175 78.5778 152.775 80.9333 153.975 83.0667C155.219 85.1556 156.864 86.8444 158.908 88.1333C160.997 89.3778 163.308 90 165.842 90ZM208.733 96.8C206.689 96.8 204.489 96.4222 202.133 95.6667C199.822 94.8667 197.822 93.5556 196.133 91.7333L198.133 83.8667C199.378 85.9556 200.978 87.6222 202.933 88.8667C204.889 90.0667 206.978 90.6667 209.2 90.6667C211.333 90.6667 212.933 90.1556 214 89.1333C215.067 88.0667 215.6 86.7778 215.6 85.2667C215.6 83.5333 215.022 82.2667 213.867 81.4667C212.756 80.6667 211.756 80.1111 210.867 79.8L205.467 77.7333C204.489 77.3333 203.311 76.7556 201.933 76C200.556 75.2 199.356 74.0667 198.333 72.6C197.311 71.1333 196.8 69.2222 196.8 66.8667C196.8 64.7333 197.311 62.7778 198.333 61C199.356 59.2222 200.8 57.8222 202.667 56.8C204.533 55.7333 206.733 55.2 209.267 55.2C211.267 55.2 213.356 55.5556 215.533 56.2667C217.711 56.9778 219.556 58.1778 221.067 59.8667L219.067 67.7333C218 65.7778 216.556 64.2222 214.733 63.0667C212.911 61.9111 211.022 61.3333 209.067 61.3333C207.244 61.3333 205.8 61.8444 204.733 62.8667C203.711 63.8889 203.2 65.0667 203.2 66.4C203.2 67.4667 203.556 68.4222 204.267 69.2667C204.978 70.1111 206.044 70.8 207.467 71.3333L212.867 73.4C213.844 73.7556 215.044 74.3333 216.467 75.1333C217.933 75.9333 219.222 77.0889 220.333 78.6C221.444 80.1111 222 82.1556 222 84.7333C222 88.3333 220.733 91.2444 218.2 93.4667C215.711 95.6889 212.556 96.8 208.733 96.8ZM237.098 96V62H228.031V56H237.298V42.6667H244.098V56H254.031V62H244.298V96H237.098ZM262.431 96V56H269.098V63.3333C270.52 60.9778 272.409 59.1111 274.765 57.7333C277.12 56.3111 279.92 55.6 283.165 55.6L284.965 62.8C284.12 62.5333 283.142 62.4 282.031 62.4C278.298 62.4 275.298 63.6 273.031 66C270.765 68.3556 269.631 71.7333 269.631 76.1333V96H262.431Z" fill="white"/>
</svg>
