<svg width="24" height="24" viewBox="0 0 24 24" fill="none" xmlns="http://www.w3.org/2000/svg">
<path d="M6.92191 0.558048C6.39144 0.558048 5.8827 0.749128 5.5076 1.08925C5.1325 1.42938 4.92178 1.89069 4.92178 2.3717V9.50578C4.70599 9.535 4.49762 9.59868 4.30635 9.69384V2.3717C4.30635 1.74269 4.58192 1.13944 5.07243 0.694655C5.56294 0.249875 6.22822 0 6.92191 0H14.4781C15.1545 0.0118643 15.7994 0.260882 16.2776 0.694769L23.2338 7.00238C23.7123 7.43598 23.9869 8.02082 24 8.63411V19.9502C24 20.5792 23.7244 21.1825 23.2339 21.6272C22.7434 22.072 22.0781 22.3219 21.3844 22.3219H13.8615C13.9932 22.1545 14.083 21.9636 14.1249 21.7639H21.3844C21.9149 21.7639 22.4236 21.5728 22.7987 21.2326C23.1738 20.8925 23.3846 20.4312 23.3846 19.9502V8.92876H16.7687C16.075 8.92876 15.4098 8.67889 14.9193 8.2341C14.4287 7.78932 14.1532 7.18607 14.1532 6.55706V0.558048H6.92191ZM15.8425 1.08931C15.5506 0.824483 15.1755 0.648067 14.7686 0.584276V6.55706C14.7686 7.03807 14.9793 7.49938 15.3544 7.83951C15.7295 8.17963 16.2383 8.37071 16.7687 8.37071H23.3556C23.2853 8.00177 23.0907 7.6616 22.7987 7.39692L15.8425 1.08931ZM3.58815 17.362C3.18777 16.8928 2.64258 16.5422 2.02188 16.3547L0.420545 15.8831C0.297496 15.8434 0.191016 15.7702 0.115719 15.6734C0.0404225 15.5766 0 15.4611 0 15.3427C0 15.2242 0.0404225 15.1087 0.115719 15.012C0.191016 14.9152 0.297496 14.8419 0.420545 14.8022L2.02188 14.3307C2.49617 14.1823 2.92688 13.9378 3.28127 13.6158C3.63565 13.2938 3.90436 12.9027 4.06695 12.4724L4.08049 12.4366L4.60114 10.9857C4.64452 10.8737 4.72519 10.7767 4.83202 10.708C4.93885 10.6394 5.06655 10.6025 5.19749 10.6025C5.32842 10.6025 5.45613 10.6394 5.56295 10.708C5.66978 10.7767 5.75046 10.8737 5.79383 10.9857L6.31449 12.4366C6.47647 12.878 6.74972 13.2789 7.11253 13.6077C7.47533 13.9365 7.9177 14.184 8.40447 14.3307L10.0064 14.8022L10.0384 14.8095C10.1615 14.8492 10.268 14.9224 10.3433 15.0192C10.4186 15.116 10.459 15.2315 10.459 15.3499C10.459 15.4684 10.4186 15.5839 10.3433 15.6807C10.268 15.7774 10.1615 15.8507 10.0384 15.8904L8.43648 16.362C7.9497 16.5086 7.50733 16.7561 7.14453 17.0849C6.78172 17.4137 6.50847 17.8147 6.34649 18.256L5.82584 19.7069L5.81045 19.7426C5.7733 19.8212 5.71723 19.8912 5.64635 19.9476C5.57548 20.004 5.49159 20.0453 5.40084 20.0684C5.31008 20.0916 5.21477 20.0961 5.12186 20.0815C5.02896 20.0669 4.94083 20.0337 4.86393 19.9842C4.75739 19.9157 4.67679 19.8191 4.63314 19.7074L4.11249 18.256C3.99457 17.9333 3.81728 17.631 3.58815 17.362ZM12.6817 21.1969L11.8336 20.9469C11.576 20.8692 11.3419 20.7382 11.1498 20.5642C10.9578 20.3903 10.813 20.1781 10.7271 19.9446L10.452 19.1762C10.4291 19.1168 10.3864 19.0653 10.3297 19.0288C10.2731 18.9924 10.2054 18.9728 10.136 18.9728C10.0665 18.9728 9.99884 18.9924 9.94222 19.0288C9.8856 19.0653 9.84288 19.1168 9.81996 19.1762L9.54424 19.9446C9.46005 20.1765 9.31794 20.3875 9.12899 20.5614C8.94004 20.7352 8.70936 20.8672 8.45494 20.9469L7.60688 21.1969C7.54205 21.2181 7.48602 21.257 7.44642 21.3082C7.40681 21.3594 7.38557 21.4204 7.38557 21.4829C7.38557 21.5454 7.40681 21.6064 7.44642 21.6576C7.48602 21.7087 7.54205 21.7476 7.60688 21.7689L8.45494 22.0189C8.54807 22.0468 8.63793 22.0818 8.7245 22.1238L8.72634 22.1322C9.1214 22.3236 9.42034 22.6452 9.56148 23.0306L9.83719 23.7991C9.85987 23.8561 9.90082 23.9056 9.95479 23.9414C10.0088 23.9772 10.0733 23.9975 10.1401 23.9998C10.2069 24.0021 10.2729 23.9862 10.3297 23.9542C10.3865 23.9222 10.4314 23.8756 10.4588 23.8203V23.8158L10.4686 23.7935L10.7443 23.025C10.8303 22.7915 10.975 22.5794 11.1671 22.4054C11.3591 22.2315 11.5933 22.1004 11.8509 22.0228L12.6989 21.7728C12.7638 21.7515 12.8198 21.7126 12.8594 21.6615C12.899 21.6103 12.9202 21.5493 12.9202 21.4868C12.9202 21.4243 12.899 21.3633 12.8594 21.3121C12.8198 21.2609 12.7638 21.2221 12.6989 21.2008L12.6817 21.1969Z" fill="white"/>
</svg>
